<svg width="1400" height="520" viewBox="0 0 1400 520" fill="none" xmlns="http://www.w3.org/2000/svg">
  <rect width="1400" height="520" rx="36" fill="#08090A"/>
  <path d="M0 0H1400V520H0V0Z" fill="url(#bg)"/>
  <circle cx="1125" cy="88" r="210" fill="#FF6B35" fill-opacity="0.16"/>
  <circle cx="1190" cy="430" r="260" fill="#06C167" fill-opacity="0.12"/>
  <circle cx="170" cy="410" r="260" fill="#FFD166" fill-opacity="0.1"/>
  <path d="M92 90C92 72.3269 106.327 58 124 58H1282C1299.67 58 1314 72.3269 1314 90V430C1314 447.673 1299.67 462 1282 462H124C106.327 462 92 447.673 92 430V90Z" fill="#111315" stroke="#262A2E" stroke-width="2"/>
  <path d="M966 134C966 118.536 978.536 106 994 106H1214C1229.46 106 1242 118.536 1242 134V386C1242 401.464 1229.46 414 1214 414H994C978.536 414 966 401.464 966 386V134Z" fill="#F8F7F3"/>
  <rect x="990" y="134" width="174" height="14" rx="7" fill="#151719"/>
  <rect x="990" y="164" width="228" height="98" rx="18" fill="#F4B840"/>
  <circle cx="1038" cy="213" r="30" fill="#151719"/>
  <rect x="1084" y="194" width="98" height="14" rx="7" fill="#151719"/>
  <rect x="1084" y="220" width="72" height="10" rx="5" fill="#151719" fill-opacity="0.58"/>
  <rect x="990" y="284" width="228" height="52" rx="16" fill="#151719"/>
  <rect x="1010" y="304" width="92" height="12" rx="6" fill="#F8F7F3"/>
  <rect x="1152" y="300" width="46" height="20" rx="10" fill="#06C167"/>
  <rect x="990" y="352" width="96" height="18" rx="9" fill="#E9E6DD"/>
  <rect x="1100" y="352" width="118" height="18" rx="9" fill="#E9E6DD"/>
  <path d="M167 364C232 292 295 258 356 262C413 266 439 310 489 306C550 301 572 229 635 218C687 209 739 246 793 329" stroke="#06C167" stroke-width="7" stroke-linecap="round"/>
  <rect x="158" y="116" width="144" height="36" rx="18" fill="#06C167"/>
  <text x="184" y="140" fill="#07110B" font-family="Inter, Arial, sans-serif" font-size="16" font-weight="800">ZERO DOLLAR</text>
  <text x="158" y="222" fill="#F8F7F3" font-family="Inter, Arial, sans-serif" font-size="84" font-weight="900" letter-spacing="0">Phantom Eats</text>
  <text x="164" y="277" fill="#C8CBC6" font-family="Inter, Arial, sans-serif" font-size="28" font-weight="600">A dopamine-first food delivery simulation.</text>
  <text x="164" y="322" fill="#858A85" font-family="Inter, Arial, sans-serif" font-size="22" font-weight="500">Browse cravings, build carts, track fake orders, and keep every cent.</text>
  <rect x="158" y="374" width="188" height="46" rx="23" fill="#F8F7F3"/>
  <text x="192" y="404" fill="#111315" font-family="Inter, Arial, sans-serif" font-size="17" font-weight="800">React + Vite</text>
  <rect x="364" y="374" width="204" height="46" rx="23" fill="#191C1F" stroke="#2C3135"/>
  <text x="395" y="404" fill="#F8F7F3" font-family="Inter, Arial, sans-serif" font-size="17" font-weight="800">Mobile-first UI</text>
  <defs>
    <linearGradient id="bg" x1="85" y1="55" x2="1305" y2="507" gradientUnits="userSpaceOnUse">
      <stop stop-color="#0E1012"/>
      <stop offset="0.54" stop-color="#111315"/>
      <stop offset="1" stop-color="#171B18"/>
    </linearGradient>
  </defs>
</svg>
